# xmcd
#
# Track frame offsets:
#	150
#	11137
#	32307
#	46204
#	68275
#	83305
#	97604
#	110899
#	128354
#	171859
#	185552
#
# Disc length: 2675 seconds
#
# Revision: 1
# Processed by: cddbd v1.5.1PL0 Copyright (c) Steve Scherf et al.
# Submitted via: audiograbber 1.81.03
#
DISCID=720a710b
DTITLE=The Wildcards - The Wildcards On Fire
DYEAR=2004
DGENRE=Rock and Roll
TTITLE0=Look What You've Done To Me
TTITLE1=Happy Hour
TTITLE2=A Little Mixed Up
TTITLE3=Can't Keep From Doing Wrong
TTITLE4=How DoYou Feel
TTITLE5=Change Your Way Of Loving
TTITLE6=Caravan
TTITLE7=I'm In A Low Down Groove
TTITLE8=Deep 6 Boogie
TTITLE9=Terra Mae
TTITLE10=I'm On Fire
EXTD=
EXTT0=
EXTT1=
EXTT2=
EXTT3=
EXTT4=
EXTT5=
EXTT6=
EXTT7=
EXTT8=
EXTT9=
EXTT10=
PLAYORDER=
